<?xml version="1.0" ?>
<svg version="1.1" xmlns="http://www.w3.org/2000/svg" viewBox="-5 -5 10 10" width="100" height="100">
  <polygon points="4.740000143647194,0.0 4.702623933553696,0.5940789822489023 4.5910850167274475,1.1787875555455685 4.407141357660294,1.7449082806706429 4.153694957494736,2.2835107520222664 3.834741935133934,2.7861006557941437 3.4553125500679016,3.244752064347267 3.021390922367573,3.652232140302658 2.5398200377821922,4.00211401283741 2.0181946456432343,4.288880154490471 1.4647412113845348,4.508007690310478 0.8881879039108753,4.656041786074638 0.297627248801291,4.730646684765816 -0.2976248972117901,4.730646684765816 -0.8881855756044388,4.656042158603668 -1.4647389762103558,4.508008435368538 -2.01819259673357,4.288880899548531 -2.539817988872528,4.0021151304244995 -3.0213890597224236,3.6522332578897476 -3.4553106874227524,3.2447539269924164 -3.8347404450178146,2.786102704703808 -4.1536930948495865,2.2835135459899902 -4.407140240073204,1.7449114471673965 -4.591083899140358,1.1787910014390945 -4.702623561024666,0.5940801929682493 -4.740000143647194,4.1438399378534996e-07 -4.702623933553696,-0.5940782837569714 -4.591084644198418,-1.1787890456616879 -4.407140985131264,-1.7449097707867622 -4.153693839907646,-2.283511869609356 -3.8347408175468445,-2.786101773381233 -3.455311432480812,-3.2447531819343567 -3.021390736103058,-3.652232140302658 -2.5398196652531624,-4.00211438536644 -2.0181942731142044,-4.288880154490471 -1.4647407457232475,-4.508007690310478 -0.8881879970431328,-4.656041786074638 -0.2976273884996772,-4.730646684765816 0.29762641061097383,-4.730646684765816 0.8881870657205582,-4.656041786074638 1.4647404663264751,-4.508008062839508 2.0181935280561447,-4.288880527019501 2.5398189201951027,-4.00211438536644 3.0213896185159683,-3.6522332578897476 3.4553110599517822,-3.2447535544633865 3.8347408175468445,-2.786102145910263 4.153693839907646,-2.2835126146674156 4.407140612602234,-1.744910515844822 4.591084271669388,-1.1787901632487774 4.702623933553696,-0.5940795410424471 " fill="#010101" fill-opacity="1.0" stroke-opacity="1.0"/>
</svg>
